<?xml version="1.0" encoding="utf-8"?>
<!-- Generator: Adobe Illustrator 24.1.1, SVG Export Plug-In . SVG Version: 6.00 Build 0)  -->
<svg version="1.1" id="Layer_1" xmlns="http://www.w3.org/2000/svg" xmlns:xlink="http://www.w3.org/1999/xlink" x="0px" y="0px"
	 viewBox="0 0 1000 1000" enable-background="new 0 0 1000 1000" xml:space="preserve">
<path fill="#FA2828" d="M500,500C382.148,382.149,215.482,215.482,0,0h125C282.405,194.755,407.405,361.422,500,500z"/>
<path fill="#FA2828" d="M500,500C436.22,346.02,352.886,179.354,250,0h125C425.818,169.869,467.485,336.536,500,500z"/>
<path fill="#FA2828" d="M500,500c0-166.666,0-333.333,0-500h125C574.182,169.869,532.515,336.536,500,500z"/>
<path fill="#FA2828" d="M500,500C563.78,346.02,647.114,179.354,750,0h125C717.595,194.755,592.595,361.422,500,500z"/>
<path fill="#FA2828" d="M500,500C617.852,382.149,784.518,215.482,1000,0v125C805.245,282.405,638.578,407.405,500,500z"/>
<path fill="#FA2828" d="M500,500c153.979-63.78,320.646-147.114,500-250v125C830.131,425.818,663.464,467.485,500,500z"/>
<path fill="#FA2828" d="M500,500c166.667,0,333.333,0,500,0v125C830.131,574.182,663.464,532.515,500,500z"/>
<path fill="#FA2828" d="M500,500c153.979,63.78,320.646,147.114,500,250v125C805.245,717.595,638.578,592.595,500,500z"/>
<path fill="#FA2828" d="M500,500c117.852,117.852,284.518,284.518,500,500H875C717.595,805.245,592.595,638.578,500,500z"/>
<path fill="#FA2828" d="M500,500c63.78,153.979,147.114,320.646,250,500H625C574.182,830.131,532.515,663.464,500,500z"/>
<path fill="#FA2828" d="M500,500c0,166.667,0,333.333,0,500H375C425.818,830.131,467.485,663.464,500,500z"/>
<path fill="#FA2828" d="M500,500c-63.78,153.979-147.114,320.646-250,500H125C282.405,805.245,407.405,638.578,500,500z"/>
<path fill="#FA2828" d="M500,500C382.148,617.852,215.482,784.518,0,1000V875C194.755,717.595,361.422,592.595,500,500z"/>
<path fill="#FA2828" d="M500,500C346.021,563.78,179.354,647.114,0,750V625C169.869,574.182,336.536,532.515,500,500z"/>
<path fill="#FA2828" d="M500,500c-166.667,0-333.333,0-500,0V375C169.869,425.818,336.536,467.485,500,500z"/>
<path fill="#FA2828" d="M500,500C346.021,436.22,179.354,352.886,0,250V125C194.755,282.405,361.422,407.405,500,500z"/>
<path fill="#E61414" d="M500,500C407.405,361.422,282.405,194.755,125,0h125C352.886,179.354,436.22,346.02,500,500z"/>
<path fill="#E61414" d="M500,500C467.485,336.536,425.818,169.869,375,0h125C500,166.667,500,333.334,500,500z"/>
<path fill="#E61414" d="M500,500c32.515-163.464,74.182-330.131,125-500h125C647.114,179.354,563.78,346.02,500,500z"/>
<path fill="#E61414" d="M500,500C592.595,361.422,717.595,194.755,875,0h125C784.518,215.482,617.852,382.149,500,500z"/>
<path fill="#E61414" d="M500,500c138.578-92.595,305.245-217.595,500-375v125C820.646,352.886,653.979,436.22,500,500z"/>
<path fill="#E61414" d="M500,500c163.464-32.515,330.131-74.182,500-125v125C833.333,500,666.667,500,500,500z"/>
<path fill="#E61414" d="M500,500c163.464,32.515,330.131,74.182,500,125v125C820.646,647.114,653.979,563.78,500,500z"/>
<path fill="#E61414" d="M500,500c138.578,92.595,305.245,217.595,500,375v125C784.518,784.518,617.852,617.852,500,500z"/>
<path fill="#E61414" d="M500,500c92.595,138.578,217.595,305.245,375,500H750C647.114,820.646,563.78,653.979,500,500z"/>
<path fill="#E61414" d="M500,500c32.515,163.464,74.182,330.131,125,500H500C500,833.333,500,666.667,500,500z"/>
<path fill="#E61414" d="M500,500c-32.515,163.464-74.182,330.131-125,500H250C352.886,820.646,436.22,653.979,500,500z"/>
<path fill="#E61414" d="M500,500c-92.595,138.578-217.595,305.245-375,500H0C215.482,784.518,382.148,617.852,500,500z"/>
<path fill="#E61414" d="M500,500C361.422,592.595,194.755,717.595,0,875V750C179.354,647.114,346.021,563.78,500,500z"/>
<path fill="#E61414" d="M500,500C336.536,532.515,169.869,574.182,0,625V500C166.667,500,333.333,500,500,500z"/>
<path fill="#E61414" d="M500,500C336.536,467.485,169.869,425.818,0,375V250C179.354,352.886,346.021,436.22,500,500z"/>
<path fill="#E61414" d="M500,500C361.422,407.405,194.755,282.405,0,125V0C215.482,215.482,382.148,382.149,500,500z"/>
</svg>
